<svg width="47" height="47" viewBox="0 0 47 47" fill="none" xmlns="http://www.w3.org/2000/svg">
<g clip-path="url(#clip0_1_104)">
<path d="M33.8689 6.72206C33.6686 6.52178 33.3974 6.40912 33.1136 6.40912H7.47723C6.8869 6.40912 6.40912 6.8869 6.40912 7.47733V39.5228C6.40912 40.1132 6.8869 40.591 7.47733 40.591H39.5228C40.1132 40.591 40.591 40.1132 40.591 39.5228V13.8864C40.591 13.6027 40.4784 13.3314 40.2781 13.1312L33.8689 6.72206ZM38.4546 38.4546H15.2779L18.7516 36.1388C19.2429 35.8112 19.3754 35.1489 19.0479 34.6575L15.3676 29.1372L20.372 25.8009L24.0904 27.6601C24.2437 27.7362 24.4065 27.7727 24.5671 27.7727C24.9593 27.7727 25.3359 27.5568 25.5236 27.1823C25.7875 26.6544 25.5737 26.0129 25.0459 25.749L21.1683 23.8101L19.465 18.7004L22.9095 16.9781C23.4374 16.7142 23.6512 16.0726 23.3873 15.5448C23.1223 15.0159 22.4829 14.8031 21.954 15.067L17.6812 17.2033C17.2055 17.4412 16.9771 17.992 17.1461 18.4969L19.0237 24.132L13.2937 27.952C12.8024 28.2796 12.6699 28.9419 12.9975 29.4333L16.6777 34.9536L11.4266 38.4546H8.54545V8.54545H32.6714L38.4546 14.3287V38.4546Z" fill="white"/>
<path d="M45.9319 10.6819C46.5223 10.6819 47.0001 10.2041 47.0001 9.61364V4.27276C47 1.91622 45.0838 0 42.7273 0H37.3865C36.796 0 36.3182 0.477778 36.3182 1.06822C36.3182 1.65755 35.8395 2.13643 35.25 2.13643C34.6607 2.13643 34.1818 1.65765 34.1818 1.06822C34.1818 0.477778 33.7041 0 33.1137 0H4.27276C1.91622 0 0 1.91622 0 4.27276V9.61364C0 10.2041 0.477778 10.6819 1.06822 10.6819C1.65755 10.6819 2.13643 11.1606 2.13643 11.7501C2.13643 12.3394 1.65765 12.8183 1.06822 12.8183C0.477778 12.8182 0 13.296 0 13.8864V42.7273C0 45.0838 1.91622 47.0001 4.27276 47.0001H42.7273C45.0838 47.0001 47.0001 45.0839 47.0001 42.7273V13.8864C47.0001 13.296 46.5223 12.8182 45.9319 12.8182C45.3425 12.8182 44.8637 12.3394 44.8637 11.75C44.8637 11.1606 45.3424 10.6819 45.9319 10.6819ZM44.8637 8.72799C43.6202 9.16921 42.7273 10.3574 42.7273 11.75C42.7273 13.1426 43.6203 14.3307 44.8637 14.772V42.7272C44.8637 43.9049 43.905 44.8636 42.7273 44.8636H4.27276C3.09509 44.8636 2.13643 43.9049 2.13643 42.7272V14.772C3.3799 14.3307 4.27276 13.1426 4.27276 11.75C4.27276 10.3574 3.3798 9.16921 2.13633 8.72799V4.27266C2.13633 3.09499 3.09499 2.13633 4.27266 2.13633H32.2279C32.6693 3.3798 33.8574 4.27276 35.25 4.27276C36.6426 4.27276 37.8308 3.3798 38.272 2.13643H42.7273C43.905 2.13643 44.8637 3.09509 44.8637 4.27276V8.72799Z" fill="white"/>
</g>
<defs>
<clipPath id="clip0_1_104">
<rect width="47" height="47" fill="white"/>
</clipPath>
</defs>
</svg>
